<svg width="55" height="53" viewBox="0 0 55 53" fill="none" xmlns="http://www.w3.org/2000/svg">
<path d="M23.6342 52.5373C25.9377 52.5373 27.805 50.5772 27.805 48.1592C27.805 45.7413 25.9377 43.7811 23.6342 43.7811C21.3308 43.7811 19.4635 45.7413 19.4635 48.1592C19.4635 50.5772 21.3308 52.5373 23.6342 52.5373Z" fill="white"/>
<path d="M43.0977 52.5373C45.4012 52.5373 47.2685 50.5772 47.2685 48.1592C47.2685 45.7413 45.4012 43.7811 43.0977 43.7811C40.7943 43.7811 38.9269 45.7413 38.9269 48.1592C38.9269 50.5772 40.7943 52.5373 43.0977 52.5373Z" fill="white"/>
<path d="M30.5858 29.1874H36.1468V20.4604H44.4606V14.6229H36.1468V5.92505H30.5858V14.6229H22.272V20.4604H30.5858V29.1874Z" fill="white"/>
<path d="M22.2441 40.8624H44.4883C45.0484 40.8606 45.595 40.6814 46.0564 40.348C46.5178 40.0147 46.8725 39.5429 47.0742 38.9944L54.943 17.5124H48.9927L42.5697 35.0249H24.1071L11.6226 3.59006C11.1993 2.5249 10.4847 1.61536 9.56912 0.976364C8.65354 0.337371 7.57807 -0.00239082 6.47861 1.2664e-05H0V5.83749H6.47861L19.6861 39.0527C19.8947 39.5858 20.2489 40.042 20.7041 40.3641C21.1594 40.6861 21.6952 40.8595 22.2441 40.8624Z" fill="white"/>
</svg>
