<?xml version="1.0" encoding="utf-8"?>
<!-- Generator: Adobe Illustrator 23.0.5, SVG Export Plug-In . SVG Version: 6.00 Build 0)  -->
<svg version="1.1" id="Capa_1" xmlns="http://www.w3.org/2000/svg" xmlns:xlink="http://www.w3.org/1999/xlink" x="0px" y="0px"
	 viewBox="0 0 24 24" style="enable-background:new 0 0 24 24;" xml:space="preserve">
<style type="text/css">
	.st0{fill:#00C0FF;}
</style>
<g>
	<path class="st0" d="M16.5,7l-0.4-0.2l0.1-0.4c0.1-0.2,0.1-0.5,0-0.7c-0.2-0.5-0.8-0.7-1.2-0.5c-0.5,0.2-0.7,0.7-0.5,1.2l0.2,0.4
		l-3.9,1.6L10.6,8c-0.1-0.2-0.3-0.4-0.5-0.5c-0.2-0.1-0.5-0.1-0.7,0C8.9,7.7,8.7,8.2,8.8,8.7c0.1,0.2,0.3,0.4,0.5,0.5l0.4,0.2
		L9.5,9.8c-0.1,0.2-0.1,0.5,0,0.7c0.2,0.5,0.8,0.7,1.2,0.5c0.5-0.2,0.7-0.7,0.5-1.2l-0.2-0.4l3.9-1.6l0.2,0.4
		c0.2,0.5,0.8,0.7,1.2,0.5c0.2-0.1,0.4-0.3,0.5-0.5s0.1-0.5,0-0.7C16.9,7.3,16.7,7.1,16.5,7z"/>
	<path class="st0" d="M21.4,4.1C21.3,4,21.1,4,21,4H2v2h2.3l3.5,9.7c0.3,0.8,1,1.3,1.9,1.3H18v-2H9.7L9,13h9c0.4,0,0.8-0.2,0.9-0.6
		l3-7C22.1,4.9,21.9,4.3,21.4,4.1z M16.8,9.6c-0.8,0.3-1.7,0-2.2-0.6l-2.3,0.9c0.1,0.9-0.4,1.7-1.2,2c-0.5,0.2-1,0.2-1.4,0
		c-0.5-0.2-0.8-0.6-1-1c-0.1-0.3-0.2-0.6-0.1-1C8.3,9.6,8.1,9.4,8,9.1C7.6,8.1,8.1,7,9,6.6c0.8-0.3,1.7,0,2.2,0.6l2.3-0.9
		c-0.1-0.9,0.4-1.7,1.2-2c0.9-0.4,2.1,0.1,2.4,1.1c0.1,0.3,0.2,0.6,0.1,1c0.3,0.2,0.5,0.5,0.6,0.8C18.3,8.1,17.8,9.2,16.8,9.6z"/>
	<circle class="st0" cx="10.5" cy="19.5" r="1.5"/>
	<circle class="st0" cx="16.5" cy="19.5" r="1.5"/>
</g>
</svg>
