<svg width="29" height="29" viewBox="0 0 29 29" fill="none" xmlns="http://www.w3.org/2000/svg">
<path d="M20.9967 0H8.00273C3.59003 0 0 3.5902 0 8.0029V20.9969C0 25.4098 3.59003 28.9998 8.00273 28.9998H20.9967C25.4098 28.9998 28.9998 25.4096 28.9998 20.9969V8.0029C29 3.5902 25.4098 0 20.9967 0ZM26.427 20.9969C26.427 23.991 23.991 26.4268 20.9969 26.4268H8.00273C5.00878 26.427 2.57301 23.991 2.57301 20.9969V8.0029C2.57301 5.00895 5.00878 2.57301 8.00273 2.57301H20.9967C23.9909 2.57301 26.4268 5.00895 26.4268 8.0029V20.9969H26.427Z" fill="white"/>
<path d="M14.4999 7.02783C10.3795 7.02783 7.0274 10.3799 7.0274 14.5004C7.0274 18.6206 10.3795 21.9725 14.4999 21.9725C18.6203 21.9725 21.9724 18.6206 21.9724 14.5004C21.9724 10.3799 18.6203 7.02783 14.4999 7.02783ZM14.4999 19.3994C11.7984 19.3994 9.60041 17.2017 9.60041 14.5002C9.60041 11.7985 11.7983 9.60067 14.4999 9.60067C17.2016 9.60067 19.3994 11.7985 19.3994 14.5002C19.3994 17.2017 17.2014 19.3994 14.4999 19.3994Z" fill="white"/>
<path d="M22.2858 4.8457C21.7901 4.8457 21.3031 5.0464 20.953 5.39804C20.6012 5.74797 20.3989 6.23513 20.3989 6.73257C20.3989 7.22848 20.6013 7.71546 20.953 8.06711C21.3029 8.41703 21.7901 8.61944 22.2858 8.61944C22.7832 8.61944 23.2687 8.41703 23.6203 8.06711C23.972 7.71546 24.1727 7.22831 24.1727 6.73257C24.1727 6.23513 23.972 5.74797 23.6203 5.39804C23.2704 5.0464 22.7832 4.8457 22.2858 4.8457Z" fill="white"/>
</svg>
