<svg width="23" height="28" viewBox="0 0 23 28" fill="none" xmlns="http://www.w3.org/2000/svg">
<path d="M20.1358 5.9882C19.9567 5.89053 19.7823 5.78345 19.6134 5.66738C19.122 5.32467 18.6716 4.92084 18.2716 4.46461C17.271 3.25659 16.8973 2.03107 16.7597 1.17302H16.7652C16.6502 0.46081 16.6977 0 16.7049 0H12.1474V18.5946C12.1474 18.8442 12.1474 19.091 12.1374 19.3348C12.1374 19.3651 12.1347 19.3931 12.133 19.4258C12.133 19.4392 12.133 19.4532 12.1303 19.4672C12.1303 19.4707 12.1303 19.4742 12.1303 19.4777C12.0822 20.1449 11.8795 20.7894 11.54 21.3545C11.2005 21.9196 10.7346 22.388 10.1832 22.7185C9.60855 23.0635 8.95861 23.2444 8.29749 23.2435C6.17407 23.2435 4.45311 21.4166 4.45311 19.1604C4.45311 16.9042 6.17407 15.0772 8.29749 15.0772C8.69944 15.0769 9.09892 15.1436 9.4811 15.275L9.48662 10.3787C8.32644 10.2206 7.14778 10.3179 6.02501 10.6645C4.90224 11.011 3.85972 11.5993 2.96323 12.3923C2.1777 13.1124 1.51729 13.9717 1.01174 14.9314C0.819356 15.2814 0.0934901 16.6877 0.00559014 18.9702C-0.0496929 20.2657 0.319045 21.6079 0.494845 22.1626V22.1743C0.605411 22.501 1.03385 23.6157 1.73208 24.5554C2.2951 25.3091 2.96029 25.9713 3.70623 26.5205V26.5088L3.71729 26.5205C5.92364 28.1024 8.36991 27.9986 8.36991 27.9986C8.79338 27.9805 10.2119 27.9986 11.8229 27.1931C13.6096 26.3 14.6268 24.9695 14.6268 24.9695C15.2767 24.1745 15.7934 23.2685 16.1549 22.2904C16.5673 21.1465 16.7049 19.7746 16.7049 19.2263V9.36145C16.7602 9.39645 17.4966 9.91034 17.4966 9.91034C17.4966 9.91034 18.5575 10.6278 20.2126 11.095C21.4001 11.4275 23 11.4975 23 11.4975V6.72375C22.4394 6.78791 21.3012 6.60125 20.1358 5.9882Z" fill="white"/>
</svg>
