<svg width="29" height="29" viewBox="0 0 29 29" fill="none" xmlns="http://www.w3.org/2000/svg">
<path d="M7.61686 23.9163L8.66666 24.5296C10.437 25.5621 12.4506 26.1042 14.5 26.1C16.7943 26.1 19.037 25.4197 20.9446 24.145C22.8522 22.8704 24.339 21.0587 25.217 18.9391C26.095 16.8195 26.3247 14.4871 25.8771 12.2369C25.4295 9.98677 24.3247 7.91985 22.7024 6.29756C21.0802 4.67527 19.0132 3.57048 16.7631 3.12289C14.5129 2.6753 12.1805 2.90502 10.0609 3.78299C7.94126 4.66097 6.12959 6.14777 4.85497 8.05538C3.58035 9.96299 2.90002 12.2057 2.90002 14.5C2.90002 16.5822 3.44667 18.5788 4.47182 20.3348L5.08372 21.3846L4.13687 24.866L7.61686 23.9163ZM0.0058194 29L1.96622 21.7964C0.674469 19.582 -0.00419141 17.0636 1.94767e-05 14.5C1.94767e-05 6.49165 6.49166 0 14.5 0C22.5084 0 29 6.49165 29 14.5C29 22.5083 22.5084 29 14.5 29C11.9375 29.0041 9.42016 28.326 7.20651 27.0352L0.0058194 29ZM9.26696 7.69659C9.46126 7.68209 9.65701 7.68209 9.85131 7.69079C9.92961 7.69659 10.0079 7.70529 10.0862 7.71399C10.3168 7.74009 10.5705 7.88074 10.6561 8.07504C11.0882 9.05524 11.5087 10.0427 11.9147 11.033C12.0046 11.2534 11.9509 11.5362 11.7798 11.8117C11.6621 11.998 11.5348 12.178 11.3985 12.3511C11.2346 12.5613 10.8823 12.947 10.8823 12.947C10.8823 12.947 10.7387 13.1181 10.7938 13.3313C10.8141 13.4125 10.8808 13.5299 10.9417 13.6285L11.0273 13.7663C11.3985 14.3854 11.8973 15.0133 12.5063 15.6049C12.6803 15.7731 12.8499 15.9456 13.0326 16.1066C13.7112 16.7054 14.4797 17.1941 15.3091 17.5566L15.3164 17.5595C15.4396 17.6131 15.502 17.6421 15.6818 17.719C15.7717 17.7567 15.8645 17.79 15.9587 17.8147C16.0561 17.8395 16.1587 17.8348 16.2534 17.8013C16.3482 17.7677 16.4308 17.7068 16.4909 17.6262C17.5407 16.3545 17.6364 16.2719 17.6451 16.2719V16.2748C17.718 16.2068 17.8046 16.1551 17.8992 16.1234C17.9937 16.0916 18.0939 16.0805 18.1932 16.0906C18.2802 16.0964 18.3686 16.1124 18.4498 16.1486C19.2198 16.501 20.4798 17.0505 20.4798 17.0505L21.3237 17.429C21.4658 17.4971 21.5949 17.6581 21.5992 17.8132C21.605 17.9104 21.6137 18.067 21.5804 18.3541C21.534 18.7296 21.4209 19.1806 21.3078 19.4169C21.2303 19.5782 21.1275 19.7261 21.0033 19.8548C20.8569 20.0085 20.6968 20.1483 20.5248 20.2724C20.4652 20.3172 20.4048 20.3607 20.3435 20.4029C20.1632 20.5174 19.9779 20.6238 19.7882 20.7219C19.4148 20.9202 19.0025 21.0341 18.5803 21.0554C18.3121 21.0699 18.0438 21.0902 17.7741 21.0757C17.7625 21.0757 16.9505 20.9496 16.9505 20.9496C14.889 20.4073 12.9824 19.3915 11.3825 17.9829C11.0548 17.6943 10.7518 17.384 10.4415 17.0752C9.15096 15.7919 8.17656 14.4072 7.58496 13.0993C7.28216 12.4574 7.1186 11.7586 7.10501 11.049C7.09904 10.1686 7.38682 9.31141 7.92281 8.61299C8.02866 8.47669 8.12871 8.33459 8.30126 8.17074C8.48541 7.99674 8.60141 7.90394 8.72756 7.84014C8.89529 7.75609 9.07826 7.70677 9.26551 7.69514L9.26696 7.69659Z" fill="white"/>
</svg>
