<?xml version="1.0" encoding="utf-8"?>
<!-- Generator: Adobe Illustrator 24.0.1, SVG Export Plug-In . SVG Version: 6.00 Build 0)  -->
<svg version="1.1" id="Capa_1" xmlns="http://www.w3.org/2000/svg" xmlns:xlink="http://www.w3.org/1999/xlink" x="0px" y="0px"
	 viewBox="0 0 84 80" style="enable-background:new 0 0 84 80;" xml:space="preserve">
<style type="text/css">
	.st0{fill:#841917;}
	.st1{fill:none;}
	.st2{fill:#FFE59C;}
	.st3{fill:#EFB276;}
</style>
<g>
	<g>
		<g>
			<path class="st0" d="M66.74,28.61c-3.14,1.33-6.2,0.98-9.21-0.41c-2.71-1.25-5-3.08-7.12-5.15c-3.47-3.38-7.22-6.37-11.74-8.21
				c-7.65-3.12-14.97-2.76-21.66,2.46c-3.08,2.41-5.21,5.41-6.4,8.95c-0.38,1.13-0.67,2.31-0.86,3.55
				c-0.93,6.1,2.05,11.93,7.84,14.84c0.69,0.35,1.42,0.64,2.15,0.9c1.47,0.52,3,0.92,4.48,1.43c0.3,0.1,0.63,0.14,0.99,0.21
				c-3.2,7.74-1.96,14.94,2.2,21.81c1.12,1.85,2.67,3.3,4.67,4.21c1.53,0.69,3.04,0.64,4.34-0.44c1-0.83,1.92-1.78,2.76-2.77
				c2.12-2.49,4.08-5.12,6.27-7.54c3.73-4.14,8.27-7.01,13.67-8.61c7.22-2.14,11.72-7,13.42-14.36c0.59-2.54,0.66-5.12,0.17-7.7
				C72.14,28.76,69.58,27.4,66.74,28.61z M68.27,42.23c-2.39,5.32-6.79,8.09-12.31,9.14c-4.92,0.93-9.14,3.14-12.78,6.46
				c-2.29,2.09-4.34,4.45-6.58,6.59c-2.23,2.13-2.68,2.7-4.93-0.38c-3.05-4.16-4.08-9-3.92-14.1c0.04-1.34,0.96-2.32,2.13-2.49
				c5.07-0.73,8.86-3.43,11.45-7.75c0.11-0.19,0.22-0.37,0.32-0.56c0.07-0.13,0.14-0.25,0.2-0.38c0,0,0,0,0,0
				c0.69-1.33,1.17-2.69,1.41-4.07c0.01-0.05,0.02-0.09,0.02-0.14c0.03-0.17,0.05-0.35,0.07-0.52c0.01-0.08,0.02-0.15,0.02-0.23
				c0.01-0.16,0.02-0.31,0.03-0.47c0-0.09,0.01-0.18,0.01-0.28c0-0.15,0-0.29,0-0.44c0-0.1,0-0.21-0.01-0.31
				c-0.01-0.14-0.02-0.28-0.03-0.42c-0.01-0.11-0.02-0.23-0.04-0.34c-0.02-0.13-0.03-0.26-0.05-0.4c-0.02-0.12-0.04-0.25-0.07-0.37
				c-0.02-0.13-0.05-0.25-0.08-0.38c-0.03-0.13-0.06-0.26-0.1-0.4c-0.03-0.12-0.06-0.24-0.1-0.35c-0.04-0.14-0.09-0.29-0.14-0.43
				c-0.04-0.11-0.07-0.22-0.11-0.32c-0.06-0.16-0.13-0.33-0.2-0.49c-0.04-0.09-0.07-0.18-0.11-0.27c-0.11-0.25-0.24-0.51-0.37-0.76
				c-0.55-1.04-1.54-1.4-2.42-0.92c-0.8,0.44-0.87,1.31-0.43,2.4c0.43,1.05,0.87,2.15,0.94,3.26c0.41,6.04-5.43,12.15-11.57,12.09
				c-1.58-0.02-3.12-0.2-4.62-0.56c-1.91-0.45-3.75-1.16-5.49-2.19c-4.12-2.42-6.21-6.91-5.46-11.48c0.21-1.29,0.59-2.56,1.11-3.78
				c2.92-6.8,10.47-12.05,20.18-9.53c5.08,1.32,9.23,4.22,13.02,7.73c1.63,1.51,3.27,3.02,5.06,4.34c0.24,0.18,0.49,0.35,0.74,0.52
				c0.07,0.05,0.15,0.1,0.22,0.15c0.18,0.12,0.36,0.24,0.55,0.36c0.08,0.05,0.16,0.1,0.24,0.15c0.2,0.12,0.39,0.24,0.59,0.35
				c0.06,0.04,0.12,0.07,0.18,0.11c0.26,0.15,0.53,0.29,0.8,0.43c0.28,0.14,0.56,0.28,0.85,0.4c0.07,0.03,0.14,0.06,0.21,0.09
				c0.24,0.1,0.48,0.2,0.72,0.29c0.06,0.02,0.12,0.05,0.18,0.07c0.3,0.11,0.59,0.21,0.89,0.3c0.05,0.02,0.1,0.03,0.15,0.04
				c0.25,0.07,0.51,0.14,0.76,0.2c0.08,0.02,0.17,0.04,0.25,0.06c0.26,0.06,0.53,0.11,0.79,0.15c0.05,0.01,0.1,0.02,0.14,0.03
				c0.31,0.05,0.63,0.08,0.94,0.11c0.08,0.01,0.16,0.01,0.24,0.02c0.25,0.02,0.5,0.03,0.75,0.03c0.09,0,0.19,0,0.28,0
				c0.33,0,0.66-0.01,0.99-0.03c0.24-0.02,0.6,0.24,0.74,0.46c1.22,2,2.85,3.47,5.35,4.28C69.34,39.03,68.96,40.7,68.27,42.23z"/>
		</g>
		<g>
			<path class="st0" d="M34.03,75.27c-0.85,0-1.73-0.2-2.61-0.6c-2.24-1.02-4.06-2.65-5.39-4.85c-4.41-7.3-5.39-14.36-2.96-21.54
				c-0.45-0.14-0.91-0.28-1.35-0.42c-0.83-0.25-1.68-0.51-2.52-0.81c-0.91-0.32-1.66-0.63-2.34-0.98
				c-6.34-3.19-9.76-9.67-8.71-16.52c0.2-1.32,0.51-2.6,0.92-3.82c1.3-3.86,3.63-7.13,6.94-9.71c6.79-5.31,14.61-6.21,23.26-2.69
				c4.13,1.68,7.92,4.32,12.26,8.55c2.35,2.29,4.47,3.82,6.67,4.84c2.88,1.33,5.39,1.45,7.9,0.39c1.83-0.78,3.69-0.76,5.24,0.07
				c1.54,0.82,2.59,2.34,2.97,4.29c0.53,2.76,0.47,5.57-0.18,8.37c-1.85,8-6.75,13.23-14.54,15.54c-5.13,1.52-9.36,4.19-12.93,8.15
				c-1.27,1.41-2.5,2.93-3.69,4.4c-0.83,1.02-1.68,2.08-2.55,3.1c-1,1.18-1.97,2.15-2.97,2.97C36.44,74.85,35.27,75.27,34.03,75.27z
				 M26.23,49.06c-2.21,6.33-1.36,12.59,2.57,19.09c0.98,1.63,2.32,2.83,3.95,3.58c1.38,0.63,2.17,0.18,2.64-0.21
				c0.84-0.7,1.68-1.53,2.56-2.57c0.84-0.99,1.68-2.03,2.5-3.04c1.22-1.5,2.47-3.06,3.8-4.54c3.57-3.96,7.91-6.85,12.92-8.6
				c-0.3,0.07-0.61,0.13-0.92,0.19c-4.53,0.86-8.46,2.85-12,6.07c-1.24,1.13-2.44,2.38-3.6,3.58c-0.95,0.99-1.93,2.01-2.95,2.98
				l-0.17,0.17c-1.26,1.21-2.26,2.16-3.67,2.04c-1.31-0.11-2.28-1.11-3.51-2.79c-3-4.1-4.42-9.18-4.23-15.11
				C26.13,49.6,26.17,49.33,26.23,49.06z M40.39,24.64c0.31,0,0.61,0.05,0.91,0.14c0.89,0.27,1.65,0.93,2.14,1.86
				c0.14,0.27,0.28,0.56,0.41,0.85c0.03,0.08,0.06,0.15,0.09,0.22l0.03,0.08c0.08,0.18,0.16,0.37,0.22,0.55
				c0.03,0.09,0.07,0.19,0.1,0.28l0.04,0.13c0.05,0.15,0.1,0.3,0.15,0.45c0.03,0.11,0.06,0.23,0.09,0.34l0.02,0.06
				c0.05,0.17,0.08,0.32,0.11,0.46c0.03,0.14,0.06,0.28,0.09,0.43c0.03,0.14,0.05,0.28,0.07,0.42c0.02,0.15,0.04,0.3,0.06,0.45
				c0.02,0.13,0.03,0.26,0.04,0.39c0.01,0.16,0.02,0.32,0.03,0.48c0.01,0.12,0.01,0.24,0.01,0.36c0,0.17,0,0.34,0,0.51
				c0,0.09-0.01,0.19-0.01,0.28c-0.01,0.22-0.02,0.4-0.04,0.58c-0.01,0.06-0.01,0.13-0.02,0.19l-0.01,0.06
				c-0.02,0.2-0.05,0.4-0.08,0.59l-0.02,0.12c-0.26,1.54-0.79,3.07-1.58,4.58c-0.07,0.14-0.14,0.27-0.22,0.41
				c-0.12,0.21-0.23,0.41-0.35,0.62c-2.91,4.86-7.16,7.73-12.61,8.52c-0.44,0.06-0.73,0.44-0.75,0.95
				c-0.17,5.26,1.01,9.55,3.6,13.09c0.62,0.85,0.97,1.22,1.16,1.39c0.29-0.22,0.77-0.68,1.18-1.06l0.17-0.17
				c0.97-0.93,1.93-1.92,2.85-2.89c1.2-1.25,2.44-2.54,3.76-3.73c3.94-3.58,8.5-5.89,13.57-6.85c5.48-1.04,9.13-3.73,11.14-8.22v0
				c0.42-0.94,0.73-1.98,1.05-3.09c0.02-0.07,0.04-0.14,0.06-0.21c-1.85-0.88-3.35-2.22-4.54-4.05c-0.17,0.01-0.36,0.01-0.55,0.01
				c-0.08,0-0.17,0-0.25,0l-0.05,0c-0.28,0-0.56-0.02-0.83-0.03l-0.08,0c-0.07,0-0.13-0.01-0.2-0.01c-0.37-0.03-0.71-0.07-1.05-0.12
				c-0.04-0.01-0.08-0.01-0.13-0.02c-0.33-0.05-0.62-0.11-0.91-0.17c-0.09-0.02-0.19-0.04-0.28-0.06c-0.28-0.07-0.56-0.14-0.84-0.22
				l-0.16-0.05c-0.33-0.1-0.66-0.21-0.99-0.33l-0.2-0.08c-0.26-0.1-0.52-0.2-0.78-0.32l-0.23-0.1c-0.31-0.14-0.61-0.28-0.92-0.44
				c-0.29-0.15-0.58-0.3-0.86-0.47l-0.19-0.11c-0.21-0.12-0.42-0.25-0.63-0.38c-0.09-0.05-0.17-0.11-0.26-0.16
				c-0.19-0.12-0.39-0.25-0.58-0.38l-0.23-0.16c-0.26-0.18-0.52-0.36-0.78-0.55c-1.79-1.32-3.41-2.8-5.2-4.45
				c-4.24-3.94-8.16-6.27-12.32-7.35c-9.07-2.35-15.72,2.63-18.29,8.61c-0.48,1.11-0.82,2.26-1,3.41c-0.65,3.98,1.14,7.75,4.68,9.83
				c1.55,0.91,3.25,1.59,5.04,2.01c1.4,0.33,2.83,0.5,4.27,0.51c0.02,0,0.05,0,0.07,0c2.45,0,5.08-1.24,7.04-3.32
				c1.96-2.08,2.99-4.65,2.83-7.05c-0.06-0.86-0.47-1.87-0.83-2.76c-1.18-2.89,0.59-4.12,1.15-4.43
				C39.32,24.77,39.85,24.64,40.39,24.64z M25.74,45.64c0.39,0.13,0.71,0.41,0.91,0.77c0.23,0.43,0.25,0.93,0.07,1.37
				c-0.01,0.03-0.03,0.07-0.04,0.1c0.61-1.08,1.67-1.85,2.97-2.04c0.82-0.12,1.6-0.29,2.35-0.53c-1.14,0.35-2.31,0.51-3.47,0.51
				C27.59,45.83,26.66,45.76,25.74,45.64z M36.89,42.58c-1.15,0.99-2.41,1.77-3.74,2.32C34.52,44.34,35.77,43.57,36.89,42.58z
				 M11.23,32.8c0.17,2.54,1.11,4.92,2.7,6.89C12.37,37.71,11.43,35.32,11.23,32.8z M64.12,30.98c0.77,0.11,1.46,0.66,1.8,1.22
				c1.13,1.84,2.5,2.95,4.46,3.58c0.41,0.13,0.75,0.42,0.94,0.8c0.01,0.03,0.03,0.05,0.04,0.08c0.13-1.53,0.05-3.06-0.24-4.57
				c-0.19-0.97-0.65-1.7-1.31-2.05c-0.66-0.35-1.53-0.33-2.45,0.06l0,0C66.3,30.55,65.22,30.85,64.12,30.98z M40.72,28.39
				c0.42,1.04,0.92,2.3,1.01,3.63c0.1,1.45-0.11,2.93-0.59,4.37c0.24-0.66,0.42-1.32,0.53-1.97l0.02-0.09
				c0.03-0.18,0.05-0.33,0.06-0.47l0.02-0.19c0.01-0.14,0.02-0.27,0.03-0.41c0-0.1,0.01-0.16,0.01-0.23c0-0.13,0-0.25,0-0.38
				c0-0.09,0-0.18-0.01-0.27c-0.01-0.11-0.01-0.23-0.02-0.35c-0.01-0.1-0.02-0.19-0.03-0.29c-0.01-0.11-0.03-0.22-0.05-0.34
				c-0.02-0.11-0.04-0.21-0.06-0.32c-0.02-0.11-0.04-0.21-0.06-0.32c-0.02-0.11-0.05-0.21-0.08-0.31l-0.03-0.1
				c-0.02-0.08-0.04-0.16-0.06-0.24c-0.03-0.11-0.07-0.22-0.11-0.33l-0.05-0.15c-0.02-0.06-0.04-0.11-0.06-0.17
				c-0.05-0.14-0.11-0.29-0.17-0.43l-0.05-0.13c-0.01-0.04-0.03-0.07-0.05-0.11C40.85,28.67,40.78,28.53,40.72,28.39z M63.92,34.19
				C63.92,34.19,63.92,34.19,63.92,34.19C63.92,34.19,63.92,34.19,63.92,34.19z M63.16,33.88C63.16,33.89,63.17,33.89,63.16,33.88
				C63.17,33.89,63.16,33.89,63.16,33.88z M66.74,28.61L66.74,28.61L66.74,28.61z M14.85,21.72c-0.86,1.11-1.58,2.3-2.14,3.59
				C13.27,24.07,13.99,22.86,14.85,21.72z"/>
		</g>
	</g>
	<g>
		<g>
			<path class="st0" d="M51.72,31.22c-0.23-0.03-0.46-0.03-0.55-0.03c-2.32,0.02-4.23,1.38-4.91,3.41
				c-0.33,0.97-0.08,1.73,0.64,1.99c0.77,0.28,1.34-0.09,1.72-1.1c0.48-1.29,1.5-1.93,2.81-1.76c1,0.13,1.67-0.26,1.79-1.04
				C53.32,31.95,52.7,31.33,51.72,31.22z"/>
		</g>
		<g>
			<path class="st0" d="M47.36,38.29c-0.35,0-0.7-0.07-1.01-0.18c-1.57-0.57-2.23-2.23-1.62-4.03c0.92-2.71,3.44-4.48,6.43-4.51
				c0.04,0,0.07,0,0.1,0l0.06,0c0.15,0,0.37,0.01,0.58,0.04c0,0,0,0,0,0c0.99,0.11,1.84,0.56,2.37,1.25
				c0.46,0.59,0.65,1.32,0.54,2.06c-0.24,1.67-1.73,2.66-3.6,2.41c-0.47-0.06-0.83,0.04-1.09,0.72
				C49.51,37.72,48.4,38.29,47.36,38.29z M51.89,32.13L51.89,32.13L51.89,32.13z"/>
		</g>
	</g>
	<g>
		<g>
			<path class="st1" d="M41.39,27.77c0-0.1,0-0.21-0.01-0.31C41.38,27.56,41.39,27.67,41.39,27.77z"/>
		</g>
	</g>
	<g>
		<g>
			<path class="st1" d="M41.23,29.84c0.01-0.05,0.02-0.09,0.02-0.14C41.25,29.75,41.24,29.8,41.23,29.84z"/>
		</g>
	</g>
	<g>
		<g>
			<path class="st1" d="M41.32,29.19c0.01-0.08,0.02-0.15,0.02-0.23C41.34,29.04,41.33,29.11,41.32,29.19z"/>
		</g>
	</g>
	<g>
		<g>
			<path class="st1" d="M39.3,34.85c0.11-0.19,0.22-0.37,0.32-0.56C39.52,34.48,39.41,34.66,39.3,34.85z"/>
		</g>
	</g>
	<g>
		<g>
			<path class="st1" d="M41.12,25.56c-0.03-0.13-0.06-0.26-0.1-0.4C41.06,25.3,41.09,25.43,41.12,25.56z"/>
		</g>
	</g>
	<g>
		<g>
			<path class="st1" d="M62.76,27.71c0.08,0.01,0.16,0.01,0.24,0.02C62.92,27.72,62.84,27.72,62.76,27.71z"/>
		</g>
	</g>
	<g>
		<g>
			<path class="st1" d="M40.93,24.81c-0.04-0.14-0.09-0.29-0.14-0.43C40.83,24.52,40.88,24.67,40.93,24.81z"/>
		</g>
	</g>
	<g>
		<g>
			<path class="st1" d="M41.35,27.04c-0.01-0.11-0.02-0.23-0.04-0.34C41.33,26.82,41.34,26.93,41.35,27.04z"/>
		</g>
	</g>
	<g>
		<g>
			<path class="st1" d="M41.26,26.31c-0.02-0.12-0.04-0.25-0.07-0.37C41.22,26.06,41.24,26.18,41.26,26.31z"/>
		</g>
	</g>
	<g>
		<g>
			<path class="st1" d="M61.67,27.58c0.05,0.01,0.1,0.02,0.14,0.03C61.76,27.59,61.72,27.58,61.67,27.58z"/>
		</g>
	</g>
	<g>
		<g>
			<path class="st1" d="M40.67,24.05c-0.06-0.16-0.13-0.33-0.2-0.49C40.54,23.72,40.61,23.89,40.67,24.05z"/>
		</g>
	</g>
	<g>
		<g>
			<path class="st1" d="M52.64,25.43c0.06,0.04,0.12,0.07,0.18,0.11C52.76,25.5,52.7,25.47,52.64,25.43z"/>
		</g>
	</g>
	<g>
		<g>
			<path class="st1" d="M51.81,24.93c0.08,0.05,0.16,0.1,0.24,0.15C51.97,25.03,51.89,24.98,51.81,24.93z"/>
		</g>
	</g>
	<g>
		<g>
			<path class="st1" d="M51.05,24.42c0.07,0.05,0.15,0.1,0.22,0.15C51.19,24.52,51.12,24.47,51.05,24.42z"/>
		</g>
	</g>
	<g>
		<g>
			<path class="st1" d="M57.39,27.37c0.08,0.02,0.17,0.04,0.25,0.06C57.56,27.41,57.47,27.39,57.39,27.37z"/>
		</g>
	</g>
	<g>
		<g>
			<path class="st1" d="M55.4,26.76c0.06,0.02,0.12,0.05,0.18,0.07C55.52,26.81,55.46,26.78,55.4,26.76z"/>
		</g>
	</g>
	<g>
		<g>
			<path class="st1" d="M56.48,27.13c0.05,0.02,0.1,0.03,0.15,0.04C56.58,27.15,56.53,27.14,56.48,27.13z"/>
		</g>
	</g>
	<g>
		<g>
			<path class="st1" d="M54.47,26.37c0.07,0.03,0.14,0.06,0.21,0.09C54.61,26.44,54.54,26.41,54.47,26.37z"/>
		</g>
	</g>
	<g>
		<g>
			<path class="st1" d="M41.39,28.21c0,0.09-0.01,0.18-0.01,0.28C41.38,28.4,41.39,28.31,41.39,28.21z"/>
		</g>
	</g>
	<g>
		<g>
			<polygon class="st1" points="39.82,33.91 39.82,33.91 39.82,33.91 			"/>
		</g>
	</g>
	<g>
		<g>
			<path class="st1" d="M40.36,23.29c-0.11-0.25-0.24-0.51-0.37-0.76C40.13,22.79,40.25,23.04,40.36,23.29z"/>
		</g>
	</g>
	<g>
		<g>
			<path class="st2" d="M23.43,32.51c-0.33-1.76-1.68-3.41-3.45-3.64c-0.14-0.02-0.28-0.03-0.4-0.09c-0.27-0.15-0.32-0.53-0.25-0.84
				c0.08-0.3,0.24-0.59,0.27-0.9c0.08-0.76-0.65-1.39-1.4-1.56c-0.75-0.17-1.53-0.02-2.29-0.05c-0.77-0.03-1.61-0.29-1.95-0.98
				c-0.28-0.57-0.13-1.25-0.13-1.89c-0.01-0.64-0.34-1.4-0.98-1.42c-0.27-0.01-0.52,0.12-0.78,0.23c-0.53,1.22-0.9,2.5-1.11,3.78
				c-0.75,4.58,1.34,9.06,5.46,11.48c1.74,1.02,3.58,1.74,5.49,2.19c0.23-0.35,0.42-0.73,0.6-1.11
				C23.24,36.08,23.76,34.27,23.43,32.51z"/>
		</g>
	</g>
	<g>
		<g>
			<path class="st3" d="M38.09,27.28c-0.07-1.1-0.52-2.21-0.94-3.26c-0.45-1.09-0.37-1.97,0.43-2.4c0.88-0.48,1.87-0.13,2.42,0.92
				c0.13,0.25,0.26,0.51,0.37,0.76c0.04,0.09,0.07,0.18,0.11,0.27c0.07,0.16,0.14,0.33,0.2,0.49c0.04,0.11,0.07,0.22,0.11,0.32
				c0.05,0.14,0.1,0.29,0.14,0.43c0.04,0.12,0.07,0.24,0.1,0.35c0.03,0.13,0.07,0.26,0.1,0.4c0.03,0.13,0.05,0.25,0.08,0.38
				c0.02,0.12,0.05,0.25,0.07,0.37c0.02,0.13,0.04,0.26,0.05,0.4c0.01,0.11,0.03,0.23,0.04,0.34c0.01,0.14,0.02,0.28,0.03,0.42
				c0,0.1,0.01,0.21,0.01,0.31c0,0.15,0,0.29,0,0.44c0,0.09-0.01,0.18-0.01,0.28c-0.01,0.16-0.02,0.31-0.03,0.47
				c-0.01,0.08-0.02,0.15-0.02,0.23c-0.02,0.17-0.04,0.35-0.07,0.52c-0.01,0.05-0.02,0.09-0.02,0.14c-0.23,1.38-0.71,2.73-1.41,4.07
				c0,0,0,0,0,0c0.13,0.55,0.23,1.14,0.46,1.64c0.39,0.84,1.2,1.42,2.07,1.73c0.87,0.31,1.81,0.36,2.73,0.37
				c1.41,0.01,2.84-0.08,4.2-0.48c0.95-0.28,1.86-0.73,2.56-1.43c0.52-0.52,0.89-1.17,1.2-1.83c1.11-2.39,1.41-5.18,0.66-7.7
				c-0.02-0.08-0.05-0.15-0.08-0.23c-0.27-0.14-0.54-0.28-0.8-0.43c-0.06-0.03-0.12-0.07-0.18-0.11c-0.2-0.11-0.39-0.23-0.59-0.35
				c-0.08-0.05-0.16-0.1-0.24-0.15c-0.18-0.12-0.37-0.24-0.55-0.36c-0.07-0.05-0.15-0.1-0.22-0.15c-0.25-0.17-0.49-0.34-0.74-0.52
				c-1.78-1.32-3.43-2.83-5.06-4.34c-3.79-3.52-7.94-6.42-13.02-7.73c-9.71-2.52-17.26,2.74-20.18,9.53
				c0.25-0.11,0.51-0.24,0.78-0.23c0.64,0.02,0.97,0.79,0.98,1.42c0.01,0.64-0.15,1.32,0.13,1.89c0.34,0.69,1.19,0.96,1.95,0.98
				c0.77,0.03,1.54-0.12,2.29,0.05c0.75,0.17,1.48,0.8,1.4,1.56c-0.03,0.31-0.2,0.59-0.27,0.9c-0.08,0.3-0.03,0.69,0.25,0.84
				c0.12,0.07,0.26,0.08,0.4,0.09c1.78,0.22,3.13,1.88,3.45,3.64c0.33,1.76-0.19,3.57-0.94,5.2c-0.18,0.38-0.37,0.76-0.6,1.11
				c1.5,0.35,3.04,0.54,4.62,0.56C32.66,39.43,38.49,33.32,38.09,27.28z M44.23,29.75c0.69-2.03,2.59-3.39,4.91-3.41
				c0.1,0.01,0.33,0.01,0.55,0.03c0.98,0.11,1.6,0.73,1.5,1.47c-0.11,0.78-0.79,1.17-1.79,1.04c-1.31-0.17-2.34,0.46-2.81,1.76
				c-0.37,1.01-0.95,1.38-1.72,1.1C44.15,31.48,43.91,30.72,44.23,29.75z"/>
		</g>
	</g>
	<g>
		<g>
			<path class="st3" d="M51.27,24.57c0.18,0.12,0.36,0.24,0.55,0.36C51.63,24.81,51.45,24.69,51.27,24.57z"/>
		</g>
	</g>
	<g>
		<g>
			<path class="st3" d="M52.05,25.08c0.2,0.12,0.39,0.24,0.59,0.35C52.44,25.32,52.25,25.2,52.05,25.08z"/>
		</g>
	</g>
	<g>
		<g>
			<path class="st3" d="M40.78,24.38c-0.04-0.11-0.07-0.22-0.11-0.32C40.71,24.16,40.75,24.27,40.78,24.38z"/>
		</g>
	</g>
	<g>
		<g>
			<path class="st3" d="M50.31,23.9c0.24,0.18,0.49,0.35,0.74,0.52C50.8,24.25,50.56,24.08,50.31,23.9z"/>
		</g>
	</g>
	<g>
		<g>
			<path class="st3" d="M41.02,25.16c-0.03-0.12-0.06-0.24-0.1-0.35C40.96,24.93,40.99,25.05,41.02,25.16z"/>
		</g>
	</g>
	<g>
		<g>
			<path class="st3" d="M41.2,25.94c-0.02-0.13-0.05-0.25-0.08-0.38C41.15,25.69,41.17,25.81,41.2,25.94z"/>
		</g>
	</g>
	<g>
		<g>
			<path class="st3" d="M41.38,27.46c-0.01-0.14-0.02-0.28-0.03-0.42C41.36,27.18,41.37,27.32,41.38,27.46z"/>
		</g>
	</g>
	<g>
		<g>
			<path class="st3" d="M41.26,29.71c0.03-0.17,0.05-0.35,0.07-0.52C41.3,29.36,41.28,29.54,41.26,29.71z"/>
		</g>
	</g>
	<g>
		<g>
			<path class="st3" d="M39.82,33.91c0.69-1.33,1.18-2.69,1.41-4.07C41,31.22,40.52,32.58,39.82,33.91z"/>
		</g>
	</g>
	<g>
		<g>
			<path class="st3" d="M41.35,28.96c0.01-0.16,0.02-0.31,0.03-0.47C41.37,28.65,41.36,28.81,41.35,28.96z"/>
		</g>
	</g>
	<g>
		<g>
			<path class="st3" d="M53.62,25.97c-0.27-0.14-0.54-0.28-0.8-0.43C53.09,25.69,53.35,25.83,53.62,25.97L53.62,25.97z"/>
		</g>
	</g>
	<g>
		<g>
			<path class="st3" d="M40.47,23.56c-0.04-0.09-0.07-0.18-0.11-0.27C40.4,23.38,40.44,23.47,40.47,23.56z"/>
		</g>
	</g>
	<g>
		<g>
			<path class="st3" d="M41.39,27.77c0,0.15,0,0.29,0,0.44C41.39,28.07,41.39,27.92,41.39,27.77z"/>
		</g>
	</g>
	<g>
		<g>
			<path class="st3" d="M41.32,26.7c-0.02-0.13-0.03-0.26-0.05-0.4C41.28,26.44,41.3,26.57,41.32,26.7z"/>
		</g>
	</g>
	<g>
		<g>
			<path class="st2" d="M53.7,26.2c0.76,2.52,0.45,5.31-0.66,7.7c-0.31,0.67-0.68,1.31-1.2,1.83c-0.69,0.7-1.61,1.15-2.56,1.43
				c-1.36,0.4-2.79,0.5-4.2,0.48c-0.92-0.01-1.86-0.07-2.73-0.37c-0.87-0.31-1.68-0.89-2.07-1.73c-0.24-0.5-0.33-1.09-0.46-1.64
				c0,0,0,0,0,0c-0.07,0.13-0.13,0.25-0.2,0.38c-0.1,0.19-0.21,0.37-0.32,0.56c-2.59,4.32-6.38,7.02-11.45,7.75
				c-1.17,0.17-2.09,1.15-2.13,2.49c-0.17,5.1,0.87,9.94,3.92,14.1c2.26,3.08,2.71,2.5,4.93,0.38c2.24-2.15,4.29-4.51,6.58-6.59
				c3.64-3.32,7.87-5.52,12.78-6.46c5.52-1.05,9.93-3.83,12.31-9.14c0.69-1.53,1.07-3.2,1.62-4.91c-2.5-0.8-4.13-2.28-5.35-4.28
				c-0.14-0.23-0.5-0.48-0.74-0.46c-0.33,0.02-0.66,0.03-0.99,0.03c-0.09,0-0.19,0-0.28,0c-0.25,0-0.5-0.01-0.75-0.03
				c-0.08-0.01-0.16-0.01-0.24-0.02c-0.32-0.03-0.63-0.06-0.94-0.11c-0.05-0.01-0.1-0.02-0.14-0.03c-0.27-0.04-0.53-0.09-0.79-0.15
				c-0.08-0.02-0.17-0.04-0.25-0.06c-0.26-0.06-0.51-0.13-0.76-0.2c-0.05-0.01-0.1-0.03-0.15-0.04c-0.3-0.09-0.6-0.19-0.89-0.3
				c-0.06-0.02-0.12-0.05-0.18-0.07c-0.24-0.09-0.48-0.19-0.72-0.29c-0.07-0.03-0.14-0.06-0.21-0.09c-0.29-0.13-0.57-0.26-0.85-0.4
				C53.65,26.05,53.68,26.13,53.7,26.2z"/>
		</g>
	</g>
	<g>
		<g>
			<path class="st2" d="M54.47,26.37c-0.29-0.13-0.57-0.26-0.85-0.4l0,0C53.9,26.11,54.19,26.25,54.47,26.37z"/>
		</g>
	</g>
	<g>
		<g>
			<path class="st2" d="M63,27.73c0.25,0.02,0.5,0.03,0.75,0.03C63.5,27.75,63.25,27.74,63,27.73z"/>
		</g>
	</g>
	<g>
		<g>
			<path class="st2" d="M56.63,27.17c0.25,0.07,0.51,0.14,0.76,0.2C57.13,27.31,56.88,27.24,56.63,27.17z"/>
		</g>
	</g>
	<g>
		<g>
			<path class="st2" d="M57.64,27.43c0.26,0.06,0.53,0.11,0.79,0.15C58.17,27.53,57.9,27.48,57.64,27.43z"/>
		</g>
	</g>
	<g>
		<g>
			<path class="st2" d="M39.62,34.29c0.07-0.13,0.14-0.25,0.2-0.38C39.76,34.04,39.69,34.16,39.62,34.29z"/>
		</g>
	</g>
	<g>
		<g>
			<path class="st2" d="M54.69,26.47c0.24,0.1,0.48,0.2,0.72,0.29C55.16,26.67,54.92,26.57,54.69,26.47z"/>
		</g>
	</g>
	<g>
		<g>
			<path class="st2" d="M61.81,27.6c0.31,0.05,0.63,0.08,0.94,0.11C62.44,27.68,62.12,27.65,61.81,27.6z"/>
		</g>
	</g>
	<g>
		<g>
			<path class="st2" d="M55.58,26.83c0.3,0.11,0.59,0.21,0.89,0.3C56.17,27.04,55.88,26.94,55.58,26.83z"/>
		</g>
	</g>
	<g>
		<g>
			<path class="st0" d="M64.72,23.76c-3.14,1.33-6.2,0.98-9.21-0.41c-2.71-1.25-5-3.08-7.12-5.15c-3.47-3.38-7.22-6.37-11.74-8.21
				c-7.65-3.12-14.97-2.76-21.66,2.46c-3.08,2.41-5.21,5.41-6.4,8.95c-0.38,1.13-0.67,2.31-0.86,3.55
				c-0.93,6.1,2.05,11.93,7.84,14.84c0.69,0.35,1.42,0.64,2.15,0.9c1.47,0.52,3,0.92,4.48,1.43c0.3,0.1,0.63,0.14,0.99,0.21
				c-3.2,7.74-1.96,14.94,2.2,21.81c1.12,1.85,2.67,3.3,4.67,4.21c1.53,0.69,3.04,0.64,4.34-0.44c1-0.83,1.92-1.78,2.76-2.77
				c2.12-2.49,4.08-5.12,6.27-7.54c3.73-4.14,9.62-5.82,15.02-7.42c7.22-2.14,10.37-8.19,12.08-15.55c0.59-2.54,0.66-5.12,0.17-7.7
				C70.12,23.91,67.56,22.55,64.72,23.76z M66.25,37.38c-2.39,5.32-6.79,8.09-12.31,9.14c-4.92,0.93-9.14,3.14-12.78,6.46
				c-2.29,2.09-4.34,4.45-6.58,6.59c-2.23,2.13-2.68,2.7-4.93-0.38c-3.05-4.16-4.08-9-3.92-14.1c0.04-1.34,0.96-2.32,2.13-2.49
				c5.07-0.73,8.86-3.43,11.45-7.75c0.11-0.19,0.22-0.37,0.32-0.56c0.07-0.13,0.14-0.25,0.2-0.38c0,0,0,0,0,0
				c0.69-1.33,1.17-2.69,1.41-4.07c0.01-0.05,0.02-0.09,0.02-0.14c0.03-0.17,0.05-0.35,0.07-0.52c0.01-0.08,0.02-0.15,0.02-0.23
				c0.01-0.16,0.02-0.31,0.03-0.47c0-0.09,0.01-0.18,0.01-0.28c0-0.15,0-0.29,0-0.44c0-0.1,0-0.21-0.01-0.31
				c-0.01-0.14-0.02-0.28-0.03-0.42c-0.01-0.11-0.02-0.23-0.04-0.34c-0.02-0.13-0.03-0.26-0.05-0.4c-0.02-0.12-0.04-0.25-0.07-0.37
				c-0.02-0.13-0.05-0.25-0.08-0.38c-0.03-0.13-0.06-0.26-0.1-0.4c-0.03-0.12-0.06-0.24-0.1-0.35c-0.04-0.14-0.09-0.29-0.14-0.43
				c-0.04-0.11-0.07-0.22-0.11-0.32c-0.06-0.16-0.13-0.33-0.2-0.49c-0.04-0.09-0.07-0.18-0.11-0.27c-0.11-0.25-0.24-0.51-0.37-0.76
				c-0.55-1.04-1.54-1.4-2.42-0.92c-0.8,0.44-0.87,1.31-0.43,2.4c0.43,1.05,0.87,2.15,0.94,3.26c0.41,6.04-5.43,12.15-11.57,12.09
				c-1.58-0.02-3.12-0.2-4.62-0.56c-1.91-0.45-3.75-1.16-5.49-2.19c-4.12-2.42-6.21-6.91-5.46-11.48c0.21-1.29,0.59-2.56,1.11-3.78
				c2.92-6.8,10.47-12.05,20.18-9.53c5.08,1.32,9.23,4.22,13.02,7.73c1.63,1.51,3.27,3.02,5.06,4.34c0.24,0.18,0.49,0.35,0.74,0.52
				c0.07,0.05,0.15,0.1,0.22,0.15c0.18,0.12,0.36,0.24,0.55,0.36c0.08,0.05,0.16,0.1,0.24,0.15c0.2,0.12,0.39,0.24,0.59,0.35
				c0.06,0.04,0.12,0.07,0.18,0.11c0.26,0.15,0.53,0.29,0.8,0.43c0.28,0.14,0.56,0.28,0.85,0.4c0.07,0.03,0.14,0.06,0.21,0.09
				c0.24,0.1,0.48,0.2,0.72,0.29c0.06,0.02,0.12,0.05,0.18,0.07c0.3,0.11,0.59,0.21,0.89,0.3c0.05,0.02,0.1,0.03,0.15,0.04
				c0.25,0.07,0.51,0.14,0.76,0.2c0.08,0.02,0.17,0.04,0.25,0.06c0.26,0.06,0.53,0.11,0.79,0.15c0.05,0.01,0.1,0.02,0.14,0.03
				c0.31,0.05,0.63,0.08,0.94,0.11c0.08,0.01,0.16,0.01,0.24,0.02c0.25,0.02,0.5,0.03,0.75,0.03c0.09,0,0.19,0,0.28,0
				c0.33,0,0.66-0.01,0.99-0.03c0.24-0.02,0.6,0.24,0.74,0.46c1.22,2,2.85,3.47,5.35,4.28C67.32,34.18,66.94,35.85,66.25,37.38z"/>
		</g>
	</g>
	<g>
		<g>
			<path class="st0" d="M49.7,26.37c-0.23-0.03-0.46-0.03-0.55-0.03c-2.32,0.02-4.23,1.38-4.91,3.41c-0.33,0.97-0.08,1.73,0.64,1.99
				c0.77,0.28,1.34-0.09,1.72-1.1c0.48-1.29,1.5-1.93,2.81-1.76c1,0.13,1.67-0.26,1.79-1.04C51.3,27.1,50.67,26.48,49.7,26.37z"/>
		</g>
	</g>
</g>
</svg>
